<svg  xmlns="http://www.w3.org/2000/svg" id="indy" data-name="indy" viewBox="0 0 73.28 53.36">
    <defs>
        <style>
            .cls-1 {
            fill: #d91a60;
            stroke: #0d0c0e;
            stroke-miterlimit: 10;
            stroke-width: 2.5px;
            }
        </style>
    </defs>
    <path class="cls-1" d="M30.96,37.29c0-.87-.08-1.72-.23-2.55,0,0,6.22.39,10.27.3s9.93-.3,9.93-.3c.29.58,2.48,3.45,5.63,3.45s6.09-1.55,9.98-4.23c3.87-2.66,5.23-5.34,3.98-6.75-.22-.25-.84-.27-.88-.83s.94.21,1.03-1.23-4.32-7.02-10.36-8.89c-8.97-2.78-9.85,2.19-10.24,2.81-.18.29-4.41-.25-8.81-.3-5.13-.07-10.54.3-10.54.3.15-.83.23-1.68.23-2.55,0-7.91-6.41-14.32-14.32-14.32S2.31,8.61,2.31,16.52c0,4.09,1.72,7.77,4.46,10.38-2.75,2.61-4.46,6.29-4.46,10.38,0,7.91,6.41,14.32,14.32,14.32s14.32-6.41,14.32-14.32Z"/>
</svg>